#!OML:ASF X:\für Bonn\!DataBase\2005_08_10_Bjorn_Final\c3d\bjorn.ASF
:FULLY-SPECIFIED
:DEGREES
32
root 1.26915 18.7935 8.20442 -186.391 5.2424 179.349
lowerback -6.06564 -2.17373 3.79327
upperback 11.5301 -2.49101 0.248637
thorax 16.1109 -0.280546 -2.19658
lowerneck -8.91845 2.21617 5.93497
upperneck 9.28852 3.54854 -10.3335
head 4.52934 1.45629 -3.93515
rclavicle 3.27001e-014 -3.10104e-014
rhumerus -361.431 12.9354 265.527
rradius 39.7319
rwrist 8.19122
rhand -27.9819 16.6376
rfingers 7.12502
rthumb -1.36839 -13.3377
lclavicle 3.27001e-014 -3.10104e-014
lhumerus -4.4303 -30.4967 94.9779
lradius 24.9517
lwrist 17.5434
lhand -23.6275 -4.35904
lfingers 7.12502
lthumb 2.83709 25.6018
rfemur -12.7794 -2.06414 13.7796
rtibia 36.9817
rfoot -16.089 12.1063
rtoes -8.96425
lfemur 4.45145 -8.30693 -12.2453
ltibia 36.8128
lfoot -14.5949 3.91968
ltoes -30.7376
33
root 1.3169 18.8034 8.17798 -186.529 4.97239 179.219
lowerback -6.07418 -2.17011 3.62881
upperback 11.4739 -2.47333 0.264922
thorax 16.054 -0.299839 -2.08427
lowerneck -8.92992 2.14009 5.76006
upperneck 9.50804 3.48013 -10.2219
head 4.58726 1.42154 -3.87673
rclavicle 1.54058e-014 -2.78299e-015
rhumerus -360.335 13.7656 265.837
rradius 40.0962
rwrist 8.44359
rhand -28.5338 17.1271
rfingers 7.12502
rthumb -1.90145 -12.8442
lclavicle 1.54058e-014 -2.78299e-015
lhumerus -3.54849 -30.7863 94.6108
lradius 25.5575
lwrist 19.0595
lhand -24.2291 -4.30089
lfingers 7.12502
lthumb 2.25611 25.6669
rfemur -12.4004 -2.18927 13.7488
rtibia 36.8335
rfoot -16.169 12.0736
rtoes -8.86339
lfemur 3.89023 -8.38971 -12.4159
ltibia 38.0507
lfoot -14.1658 4.51064
ltoes -30.2899
34
root 1.36411 18.8111 8.15223 -186.687 4.70764 179.078
lowerback -6.07335 -2.12705 3.50343
upperback 11.4222 -2.39648 0.205144
thorax 15.9954 -0.28013 -2.06775
lowerneck -8.89647 2.053 5.77507
upperneck 9.71844 3.36468 -10.0981
head 4.63371 1.37045 -3.84996
rclavicle -2.46493e-014 1.63003e-014
rhumerus -359.182 14.3791 266.075
rradius 40.4914
rwrist 8.71531
rhand -28.9561 17.4278
rfingers 7.12502
rthumb -2.3093 -12.5394
lclavicle -2.46493e-014 1.63003e-014
lhumerus -2.60522 -31.2133 94.1001
lradius 26.2031
lwrist 20.6149
lhand -24.8141 -4.21012
lfingers 7.12502
lthumb 1.69114 25.7629
rfemur -12.0126 -2.35983 13.7009
rtibia 36.7063
rfoot -16.2748 12.0796
rtoes -8.8868
lfemur 3.36452 -8.51413 -12.6321
ltibia 39.262
lfoot -13.7284 5.21325
ltoes -30.2225
35
root 1.41021 18.8176 8.12693 -186.867 4.44226 178.953
lowerback -6.0483 -2.09158 3.37674
upperback 11.3889 -2.32717 0.168614
thorax 15.9445 -0.263431 -2.02452
lowerneck -8.93977 1.95767 5.71642
upperneck 9.99016 3.25182 -9.96915
head 4.71118 1.31656 -3.80913
rclavicle -7.05686e-015 1.59028e-015
rhumerus -357.928 14.9619 266.407
rradius 40.9222
rwrist 9.03433
rhand -29.2631 17.4426
rfingers 7.12502
rthumb -2.60583 -12.5212
lclavicle -7.05686e-015 1.59028e-015
lhumerus -1.54706 -31.4838 93.5849
lradius 26.8765
lwrist 22.1113
lhand -25.3346 -4.11525
lfingers 7.12502
lthumb 1.18844 25.8612
rfemur -11.6114 -2.51093 13.6674
rtibia 36.5936
rfoot -16.375 12.0651
rtoes -8.91596
lfemur 2.87717 -8.71416 -12.865
ltibia 40.4399
lfoot -13.2488 5.96221
ltoes -30.2466
36
root 1.45585 18.8229 8.10193 -187.07 4.18377 178.845
lowerback -6.02145 -2.06107 3.2572
upperback 11.3808 -2.26095 0.131017
thorax 15.9231 -0.243953 -1.9866
lowerneck -8.9704 1.87317 5.67282
upperneck 10.2227 3.15165 -9.86501
head 4.77658 1.26922 -3.77761
rclavicle -1.13307e-014 1.23246e-014
rhumerus -356.579 15.5417 266.795
rradius 41.4185
rwrist 9.22791
rhand -29.6041 17.558
rfingers 7.12502
rthumb -2.93516 -12.4016
lclavicle -1.13307e-014 1.23246e-014
lhumerus -0.38703 -31.5616 93.0462
lradius 27.5945
lwrist 23.4408
lhand -25.9455 -4.06465
lfingers 7.12502
lthumb 0.598423 25.9143
rfemur -11.1819 -2.61532 13.651
rtibia 36.484
rfoot -16.4913 12.0393
rtoes -8.82784
lfemur 2.42205 -8.9025 -13.0792
ltibia 41.5799
lfoot -12.7665 6.67329
ltoes -30.2629
37
root 1.49992 18.826 8.07543 -187.296 3.94233 178.843
lowerback -5.96689 -2.03213 3.25086
upperback 11.3718 -2.21408 0.125173
thorax 15.8788 -0.222337 -1.97868
lowerneck -8.95075 1.78977 5.60925
upperneck 10.4552 3.0629 -9.78087
head 4.83456 1.22823 -3.74844
rclavicle -8.34896e-015 -3.57812e-015
rhumerus -355.183 16.0566 267.22
rradius 41.9129
rwrist 9.39741
rhand -29.9759 17.866
rfingers 7.12502
rthumb -3.29416 -12.0883
lclavicle -8.34896e-015 -3.57812e-015
lhumerus 0.803202 -31.4914 92.5341
lradius 28.3663
lwrist 24.6315
lhand -26.596 -4.1073
lfingers 7.12502
lthumb -0.0299327 25.8724
rfemur -10.7198 -2.78743 13.7415
rtibia 36.3743
rfoot -16.5816 12.055
rtoes -8.76128
lfemur 2.02308 -9.08501 -13.1814
ltibia 42.6773
lfoot -12.2676 7.32879
ltoes -30.2426
38
root 1.54349 18.8273 8.04892 -187.572 3.71364 178.905
lowerback -5.86327 -1.99371 3.30938
upperback 11.3855 -2.1559 0.129816
thorax 15.8296 -0.185506 -1.99101
lowerneck -8.94622 1.68533 5.58416
upperneck 10.7171 2.9529 -9.76095
head 4.90405 1.17506 -3.74774
rclavicle -7.05686e-015 1.59028e-015
rhumerus -353.702 16.4776 267.68
rradius 42.4152
rwrist 9.63011
rhand -30.2388 17.892
rfingers 7.12502
rthumb -3.54808 -12.0582
lclavicle -7.05686e-015 1.59028e-015
lhumerus 2.04312 -31.3529 92.0179
lradius 29.1801
lwrist 25.7033
lhand -27.2087 -4.05011
lfingers 7.12502
lthumb -0.621652 25.9287
rfemur -10.1979 -2.95518 13.8952
rtibia 36.2698
rfoot -16.7051 12.0565
rtoes -8.81824
lfemur 1.6921 -9.25389 -13.2175
ltibia 43.7301
lfoot -11.7844 7.90971
ltoes -30.2415
39
root 1.58657 18.8276 8.02065 -187.866 3.49477 178.954
lowerback -5.74621 -1.95311 3.36402
upperback 11.3882 -2.09301 0.115002
thorax 15.7575 -0.146974 -2.02216
lowerneck -8.88838 1.5821 5.59938
upperneck 10.9682 2.84306 -9.7574
head 4.96192 1.12466 -3.75914
rclavicle 2.96189e-014 -4.37326e-015
rhumerus -352.193 16.7852 268.111
rradius 42.8235
rwrist 9.99361
rhand -30.611 18.1182
rfingers 7.12502
rthumb -3.90747 -11.8258
lclavicle 2.96189e-014 -4.37326e-015
lhumerus 3.26595 -31.1332 91.5271
lradius 29.9918
lwrist 26.6288
lhand -27.8641 -3.93382
lfingers 7.12502
lthumb -1.25469 26.0422
rfemur -9.66429 -3.08228 14.0321
rtibia 36.18
rfoot -16.8125 12.061
rtoes -8.66873
lfemur 1.3994 -9.38072 -13.2595
ltibia 44.7347
lfoot -11.3583 8.38704
ltoes -30.2232
40
root 1.62841 18.8246 7.99169 -188.179 3.26595 178.999
lowerback -5.65557 -1.92631 3.38942
upperback 11.4281 -2.0425 0.121917
thorax 15.7504 -0.114419 -2.01518
lowerneck -8.89658 1.47798 5.56664
upperneck 11.2371 2.74314 -9.77909
head 5.03719 1.0746 -3.76985
rclavicle 7.95139e-016 1.19271e-014
rhumerus -350.5 17.0893 268.631
rradius 43.0744
rwrist 10.3849
rhand -31.1463 18.5947
rfingers 7.12502
rthumb -4.4244 -11.3391
lclavicle 7.95139e-016 1.19271e-014
lhumerus 4.6102 -30.7591 91.0772
lradius 30.7516
lwrist 27.4376
lhand -28.4595 -3.89978
lfingers 7.12502
lthumb -1.82967 26.0721
rfemur -9.11934 -3.27506 14.1468
rtibia 36.1177
rfoot -16.9716 12.105
rtoes -8.75952
lfemur 1.13201 -9.45415 -13.2835
ltibia 45.6874
lfoot -10.96 8.69677
ltoes -30.0895
41
root 1.67025 18.8206 7.96305 -188.491 3.03085 178.973
lowerback -5.58058 -1.8996 3.34197
upperback 11.4583 -1.98208 0.097512
thorax 15.7431 -0.0848738 -2.0018
lowerneck -8.81373 1.37727 5.53661
upperneck 11.4526 2.64247 -9.77331
head 5.08019 1.02886 -3.77215
rclavicle 6.16232e-015 -2.34566e-014
rhumerus -348.724 17.3521 269.138
rradius 43.189
rwrist 10.7166
rhand -31.6598 19.1005
rfingers 7.12502
rthumb -4.92027 -10.8224
lclavicle 6.16232e-015 -2.34566e-014
lhumerus 5.96358 -30.3626 90.6165
lradius 31.5156
lwrist 28.3747
lhand -29.0489 -3.88881
lfingers 7.12502
lthumb -2.39896 26.0774
rfemur -8.59631 -3.42928 14.1854
rtibia 36.0895
rfoot -17.1157 12.1238
rtoes -8.69777
lfemur 0.86143 -9.47461 -13.371
ltibia 46.5826
lfoot -10.5539 8.96026
ltoes -29.907
42
root 1.71081 18.8142 7.9336 -188.808 2.78869 178.903
lowerback -5.52503 -1.87491 3.24794
upperback 11.5 -1.91614 0.0604039
thorax 15.7639 -0.0558351 -1.97616
lowerneck -8.75684 1.27593 5.51292
upperneck 11.661 2.53926 -9.77629
head 5.12548 0.980928 -3.77841
rclavicle 1.68967e-015 -4.37326e-015
rhumerus -346.781 17.6341 269.73
rradius 43.1784
rwrist 10.9916
rhand -32.0829 19.4389
rfingers 7.12502
rthumb -5.3288 -10.4741
lclavicle 1.68967e-015 -4.37326e-015
lhumerus 7.37568 -29.8142 90.2265
lradius 32.2062
lwrist 29.1815
lhand -29.5633 -3.8428
lfingers 7.12502
lthumb -2.89577 26.1173
rfemur -8.08926 -3.58205 14.1627
rtibia 36.0896
rfoot -17.2655 12.1554
rtoes -8.5331
lfemur 0.611123 -9.52575 -13.5212
ltibia 47.421
lfoot -10.1881 9.19988
ltoes -29.3025
43
root 1.75023 18.8075 7.9022 -189.118 2.54389 178.822
lowerback -5.51535 -1.86115 3.13241
upperback 11.5424 -1.86626 0.0264
thorax 15.8155 -0.0370331 -1.93934
lowerneck -8.6676 1.17945 5.45765
upperneck 11.8845 2.44976 -9.76394
head 5.1705 0.940863 -3.77366
rclavicle 1.98785e-015 6.36111e-015
rhumerus -344.833 17.9325 270.375
rradius 43.2312
rwrist 11.3396
rhand -32.5038 19.5547
rfingers 7.12502
rthumb -5.73519 -10.3477
lclavicle 1.98785e-015 6.36111e-015
lhumerus 8.78316 -29.2872 89.8456
lradius 32.9191
lwrist 29.889
lhand -30.0234 -3.5944
lfingers 7.12502
lthumb -3.34008 26.3592
rfemur -7.58807 -3.74416 14.1224
rtibia 36.1041
rfoot -17.4637 12.1687
rtoes -8.61391
lfemur 0.369777 -9.53795 -13.6787
ltibia 48.1962
lfoot -9.84281 9.38267
ltoes -28.9886
